<?xml version="1.0" encoding="UTF-8"?>
<svg version="1.1" xmlns="http://www.w3.org/2000/svg" width="1028" height="895">
<path d="M0 0 C6.78567612 5.28375099 13.07628424 11.13882932 19.328125 17.03515625 C20.06160156 17.72609375 20.79507812 18.41703125 21.55078125 19.12890625 C43.00453139 39.94288253 57.17470564 66.7274854 71.36961365 92.6550293 C74.51535624 98.39277114 77.72352916 104.09420562 80.953125 109.78515625 C87.1969201 120.7933703 93.38449808 131.83240572 99.56201172 142.87792969 C102.48210636 148.09809334 105.40522332 153.31656398 108.328125 158.53515625 C111.84136352 164.80774473 115.35394249 171.08069744 118.86328125 177.35546875 C124.49746613 187.42719747 130.14354749 197.49176968 135.828125 207.53515625 C143.29733824 220.73159799 150.697489 233.96647346 158.09863281 247.20117188 C164.32006886 258.32486593 170.55010034 269.4432803 176.828125 280.53515625 C183.10776339 291.62988329 189.33913198 302.75129018 195.56201172 313.87792969 C198.48210636 319.09809334 201.40522332 324.31656398 204.328125 329.53515625 C207.84136352 335.80774473 211.35394249 342.08069744 214.86328125 348.35546875 C220.49746613 358.42719747 226.14354749 368.49176968 231.828125 378.53515625 C239.29733824 391.73159799 246.697489 404.96647346 254.09863281 418.20117188 C260.84227832 430.25855683 267.6014477 442.30657722 274.40966797 454.32763672 C277.3479874 459.51941766 280.27370512 464.71801263 283.18359375 469.92578125 C284.14265625 471.6418457 284.14265625 471.6418457 285.12109375 473.39257812 C286.36049686 475.6120041 287.59882203 477.83203246 288.8359375 480.05273438 C289.39410156 481.05240234 289.95226562 482.05207031 290.52734375 483.08203125 C291.02065186 483.96729492 291.51395996 484.85255859 292.0222168 485.76464844 C293.05618366 487.56234741 294.17776598 489.30961772 295.328125 491.03515625 C295.328125 492.02515625 295.328125 493.01515625 295.328125 494.03515625 C232.628125 494.03515625 169.928125 494.03515625 105.328125 494.03515625 C100.54676861 484.47244347 95.77309054 474.91881498 91.140625 465.28515625 C90.58729492 464.13523193 90.03396484 462.98530762 89.46386719 461.80053711 C85.06005557 452.61969895 80.7568352 443.39447875 76.4855957 434.15136719 C71.98519347 424.42112949 67.41450063 414.72512869 62.828125 405.03515625 C57.26339427 393.27611184 51.7434205 381.49852229 46.28125 369.69140625 C41.84510273 360.1163557 37.3417727 350.57385939 32.828125 341.03515625 C27.24307497 329.23183547 21.69450814 317.41354566 16.2175293 305.55957031 C13.28467287 299.22018312 10.32070922 292.89748291 7.3203125 286.58984375 C5.92612713 283.65540109 4.53296719 280.7204739 3.140625 277.78515625 C2.79787537 277.06295898 2.45512573 276.34076172 2.10198975 275.59667969 C-2.2244688 266.46250283 -6.32133862 257.28403107 -10.109375 247.91015625 C-15.3409479 235.01173489 -21.36104104 222.53968688 -30.671875 212.03515625 C-31.23519531 211.390625 -31.79851562 210.74609375 -32.37890625 210.08203125 C-37.65781012 204.40989075 -43.73118991 200.54628486 -51.60546875 199.9453125 C-59.74673481 200.29928059 -65.1349586 204.4274051 -70.671875 210.03515625 C-71.18363281 210.51339844 -71.69539063 210.99164063 -72.22265625 211.484375 C-75.89309842 215.25375092 -78.1098479 219.67445107 -80.39767456 224.36169434 C-80.74728804 225.06955503 -81.09690151 225.77741572 -81.45710933 226.50672674 C-82.1809484 227.9723619 -82.90329148 229.43873681 -83.62415838 230.90583611 C-85.17450912 234.05668147 -86.74335192 237.19822364 -88.31106567 240.3404541 C-88.92234099 241.56842939 -89.53344746 242.79648875 -90.14439392 244.02462769 C-97.80656004 259.42548609 -105.47931536 274.82105174 -113.15760994 290.21387482 C-117.39818895 298.71560552 -121.63573855 307.21882104 -125.86621094 315.72558594 C-129.58485086 323.20311665 -133.30937923 330.67768143 -137.04059303 338.14894629 C-139.00351786 342.07993443 -140.96376844 346.01219699 -142.91687393 349.94807434 C-151.49724969 367.23419656 -160.33010099 384.18019668 -170.29215145 400.72083378 C-173.42704386 405.97924366 -176.35203998 411.35625446 -179.296875 416.72265625 C-185.12106187 427.26593561 -191.03979961 437.74871703 -197.03955078 448.19287109 C-200.21408323 453.72052691 -203.38174156 459.25211481 -206.546875 464.78515625 C-206.88576752 465.37748047 -207.22466003 465.96980469 -207.57382202 466.58007812 C-212.99323071 476.05618901 -218.34546741 485.56842639 -223.66796875 495.09936523 C-229.26668663 505.11791379 -234.96255343 515.07935765 -240.671875 525.03515625 C-243.29865414 529.61747271 -245.92396012 534.20062709 -248.546875 538.78515625 C-248.88567688 539.37729919 -249.22447876 539.96944214 -249.57354736 540.57952881 C-254.99303983 550.05582668 -260.34536808 559.56824851 -265.66796875 569.09936523 C-270.72307396 578.14515359 -275.85516217 587.14519868 -281.01025391 596.13427734 C-282.87346289 599.38709092 -284.73211335 602.64249346 -286.58984375 605.8984375 C-292.74426796 616.68392173 -298.90182471 627.4676296 -305.109375 638.22265625 C-305.5638501 639.01236816 -306.0183252 639.80208008 -306.48657227 640.61572266 C-309.55391172 645.91719297 -309.55391172 645.91719297 -310.671875 647.03515625 C-331.29860904 649.00682936 -352.30184023 641.73118406 -368.2890625 628.94140625 C-388.63797978 611.37577553 -398.08543465 586.41385194 -400.671875 560.03515625 C-400.80927797 557.27776336 -400.83552712 554.52614066 -400.83984375 551.765625 C-400.84317215 551.00397537 -400.84650055 550.24232574 -400.84992981 549.45759583 C-400.85495791 547.85674639 -400.85733942 546.25588662 -400.85717773 544.6550293 C-400.85936002 542.23924012 -400.87754825 539.8239116 -400.89648438 537.40820312 C-400.95545556 523.26195484 -399.25108706 513.06831958 -392.359375 500.47265625 C-390.9976094 497.92589415 -389.64758565 495.37295113 -388.296875 492.8203125 C-387.93426071 492.1382373 -387.57164642 491.45616211 -387.19804382 490.75341797 C-381.78034815 480.52648817 -376.69033647 470.13112942 -371.54672241 459.76461792 C-367.04266175 450.69151417 -362.50166325 441.64765353 -357.75390625 432.69921875 C-352.03068127 421.90880817 -346.60358016 410.97443341 -341.171875 400.03515625 C-335.37933183 388.36916308 -329.55438469 376.73355138 -323.44750977 365.22851562 C-318.17267766 355.25671515 -313.18851658 345.13850889 -308.171875 335.03515625 C-302.37933183 323.36916308 -296.55438469 311.73355138 -290.44750977 300.22851562 C-285.17267766 290.25671515 -280.18851658 280.13850889 -275.171875 270.03515625 C-269.37933183 258.36916308 -263.55438469 246.73355138 -257.44750977 235.22851562 C-252.17267766 225.25671515 -247.18851658 215.13850889 -242.171875 205.03515625 C-236.37933183 193.36916308 -230.55438469 181.73355138 -224.44750977 170.22851562 C-219.17267766 160.25671515 -214.18851658 150.13850889 -209.171875 140.03515625 C-198.29404568 118.12756251 -198.29404568 118.12756251 -192.67578125 107.546875 C-189.00870835 100.64039206 -185.46134584 93.6818721 -181.98046875 86.6796875 C-181.49901398 85.71126923 -181.0175592 84.74285095 -180.52151489 83.74508667 C-178.55381629 79.78226523 -176.58911779 75.81797499 -174.62817383 71.85180664 C-165.03403916 52.46223959 -165.03403916 52.46223959 -159.79296875 43.03125 C-159.45277206 42.41232376 -159.11257538 41.79339752 -158.7620697 41.15571594 C-155.27612409 35.0003031 -150.82858258 29.77843331 -146.07910156 24.57763672 C-144.67389011 23.03736504 -143.29257407 21.47823714 -141.9140625 19.9140625 C-102.90342503 -23.98072068 -48.96976546 -36.01139185 0 0 Z " fill="#F6F6F6" transform="translate(400.671875,21.96484375)"/>
<path d="M0 0 C0.66128906 0.46172607 1.32257813 0.92345215 2.00390625 1.39916992 C4.06556091 2.88509109 6.06911115 4.42362368 8.0625 6 C8.88266602 6.64364502 9.70283203 7.28729004 10.54785156 7.95043945 C17.25230874 13.55160751 21.0694121 19.41885336 24.9375 27.1875 C26.14116064 29.51211577 27.34560025 31.83632834 28.55078125 34.16015625 C29.14068848 35.31402832 29.7305957 36.46790039 30.33837891 37.65673828 C32.84963795 42.52634765 35.48259061 47.32569209 38.125 52.125 C39.10620326 53.91886927 40.08666864 55.71314233 41.06640625 57.5078125 C41.55512207 58.40274414 42.04383789 59.29767578 42.54736328 60.21972656 C45.22924462 65.14097449 47.89540898 70.07072548 50.5625 75 C55.20574771 83.58073831 59.86651171 92.15165193 64.54516602 100.71313477 C67.12459344 105.4362384 69.69367751 110.16458115 72.24609375 114.90234375 C77.60685289 124.848122 83.02599399 134.74855893 88.625 144.5625 C93.47353385 153.06537968 98.06216019 161.67394857 102.54321289 170.37524414 C106.06310751 177.1753687 109.76079749 183.85379324 113.5625 190.5 C117.90091768 198.08450217 122.0621223 205.731886 126.0625 213.5 C129.94494209 221.03579599 133.97158862 228.45819305 138.1875 235.8125 C143.69721281 245.43092284 148.90662459 255.18936919 154.0625 265 C159.09746352 274.57925029 164.17321378 284.11354498 169.5625 293.5 C175.3714232 303.61733171 180.81158977 313.91285944 186.23876953 324.23779297 C190.88416252 333.06965517 195.59298658 341.84465821 200.5625 350.5 C206.36794154 360.61126774 211.80672965 370.89984821 217.22869873 381.21966553 C222.07569253 390.43984846 227.01176958 399.58400641 232.1875 408.625 C253.28596781 445.62010548 266.88212387 486.85758025 256.375 529.5625 C246.39361208 564.44169943 221.38448818 589.81047088 190.36914062 607.32885742 C181.64584707 612.07833712 172.44955941 615.78256574 163.0625 619 C162.35948814 619.26210166 161.65647628 619.52420332 160.93216103 619.79424745 C151.39217473 622.91818965 141.6745142 622.40738586 131.75776672 622.36076355 C129.68587173 622.36207286 127.61397722 622.36470159 125.54208535 622.36853105 C119.86608724 622.37522325 114.19025969 622.36326067 108.5142833 622.34819686 C102.38694852 622.33522256 96.2596231 622.33962695 90.13227844 622.34190369 C79.52199534 622.34347554 68.91177325 622.33418054 58.30150795 622.31719017 C47.17695159 622.29942203 36.05241735 622.28788889 24.92784691 622.28463173 C24.23542965 622.28442551 23.5430124 622.28421929 22.82961281 622.28400682 C19.31298891 622.28299178 15.796365 622.28208765 12.27974107 622.2812262 C-12.6103146 622.27492967 -37.50034143 622.25473074 -62.39038086 622.22631836 C-86.56648607 622.19875286 -110.74258339 622.177508 -134.91870117 622.16479492 C-135.66428234 622.16440034 -136.40986351 622.16400576 -137.17803804 622.16359923 C-144.66566213 622.15964357 -152.15328628 622.15581615 -159.64091048 622.15208265 C-174.89324189 622.14447459 -190.14557278 622.13601083 -205.39790344 622.12702942 C-206.44975485 622.12641161 -206.44975485 622.12641161 -207.52285578 622.12578133 C-254.32774943 622.09819242 -301.13262615 622.05059583 -347.9375 622 C-346.51107531 617.60341511 -344.85013107 613.57602734 -342.78050232 609.43876648 C-342.4650655 608.80547843 -342.14962869 608.17219039 -341.82463318 607.51971179 C-340.77286168 605.41055922 -339.71542491 603.30430063 -338.65795898 601.19799805 C-337.90033779 599.68168214 -337.1430631 598.16519305 -336.3861084 596.64854431 C-334.33409935 592.53968769 -332.2771107 588.43334266 -330.21910357 584.32748771 C-328.06686435 580.03180012 -325.91884892 575.7340013 -323.77027893 571.43647766 C-320.16411395 564.22508348 -316.5548567 557.01524387 -312.94360352 549.80639648 C-308.7637727 541.46248565 -304.58814734 533.1164813 -300.41490883 524.76927155 C-296.40272626 516.74429705 -292.38826299 508.72046591 -288.37251472 500.69727516 C-286.66177573 497.27933472 -284.95172163 493.86105288 -283.24218559 490.4425106 C-281.23232135 486.42378338 -279.22042919 482.40607791 -277.20693207 478.38916969 C-276.4664907 476.91121804 -275.72673418 475.43292306 -274.98769569 473.95426941 C-273.98281469 471.94401987 -272.97549907 469.93500976 -271.96751404 467.92631531 C-271.40320899 466.79938106 -270.83890394 465.6724468 -270.25749874 464.51136303 C-268.9375 462 -268.9375 462 -267.9375 461 C-266.2542467 460.89954133 -264.56675168 460.86968789 -262.88050556 460.86692142 C-261.77797831 460.86268038 -260.67545106 460.85843933 -259.53951389 460.85406977 C-257.69987631 460.85464897 -257.69987631 460.85464897 -255.82307434 460.85523987 C-254.53196721 460.85171302 -253.24086008 460.84818618 -251.9106285 460.84455246 C-248.3101711 460.83481818 -244.70972957 460.83129809 -241.10926092 460.82870948 C-237.23250079 460.82482631 -233.35575483 460.81518837 -229.47900391 460.80615234 C-222.75535684 460.79119005 -216.03171092 460.77965604 -209.30805397 460.77020454 C-199.58012426 460.7563517 -189.8522207 460.73516651 -180.12430974 460.71177601 C-164.33442557 460.67382547 -148.54453664 460.63886907 -132.75463867 460.60717773 C-131.80875315 460.60527724 -130.86286763 460.60337675 -129.88831892 460.60141867 C-116.47019726 460.57459718 -103.05207195 460.55072249 -89.63394275 460.52803367 C-88.68957318 460.52643637 -87.74520362 460.52483906 -86.7722168 460.52319336 C-85.35738311 460.52080316 -85.35738311 460.52080316 -83.91396693 460.51836468 C-68.19089456 460.49160375 -52.46784993 460.45720555 -36.74480742 460.41653961 C-27.04133407 460.39175072 -17.33789057 460.37343177 -7.63439056 460.363384 C-0.98396193 460.35599655 5.66642665 460.34147563 12.31682875 460.32131977 C16.1554745 460.30992088 19.99405561 460.30179473 23.8327198 460.30232811 C27.99294088 460.3028343 32.152967 460.28803609 36.31315613 460.27174377 C38.13606329 460.27566906 38.13606329 460.27566906 39.99579686 460.27967364 C41.11136285 460.27282484 42.22692884 460.26597605 43.37629986 460.25891972 C44.33645022 460.25718347 45.29660058 460.25544722 46.28584641 460.25365835 C49.47317828 459.96248291 52.09950536 459.19943667 55.0625 458 C61.01004396 448.94776329 58.51714289 434.86978179 56.625 424.8125 C52.06254392 403.0379053 43.92395289 383.68316186 33.04241943 364.36233521 C29.64697687 358.31404043 26.4795465 352.15453178 23.32312012 345.97906494 C18.73249098 337.00201195 14.06205216 328.07682401 9.1875 319.25 C3.73672958 309.37834973 -1.41206482 299.36194704 -6.55072021 289.32580566 C-10.9068159 280.82268004 -15.31248645 272.36109692 -19.9375 264 C-25.3510257 254.21343126 -30.45481961 244.27853623 -35.55126953 234.32470703 C-39.90718271 225.82194916 -44.31268525 217.36073753 -48.9375 209 C-54.3510257 199.21343126 -59.45481961 189.27853623 -64.55126953 179.32470703 C-68.90718271 170.82194916 -73.31268525 162.36073753 -77.9375 154 C-83.3510257 144.21343126 -88.45481961 134.27853623 -93.55126953 124.32470703 C-97.90718271 115.82194916 -102.31268525 107.36073753 -106.9375 99 C-112.3510257 89.21343126 -117.45481961 79.27853623 -122.55126953 69.32470703 C-126.90718977 60.82193537 -131.31303515 52.36094221 -135.9375 44 C-141.04728938 34.75414141 -145.9182041 25.39312027 -150.75 16 C-151.10698975 15.30648437 -151.46397949 14.61296875 -151.83178711 13.8984375 C-156.59871219 4.63106825 -161.29654914 -4.66889125 -165.9375 -14 C-158.9210623 -17.74222851 -151.86351577 -20.64680856 -144.3125 -23.125 C-143.26433105 -23.47119385 -142.21616211 -23.8173877 -141.13623047 -24.17407227 C-132.79291489 -26.86110878 -124.62234369 -28.80917037 -115.9375 -30 C-115.11507812 -30.12890625 -114.29265625 -30.2578125 -113.4453125 -30.390625 C-73.85795298 -35.59588335 -32.3365104 -22.61751235 0 0 Z " fill="#F6F6F6" transform="translate(767.9375,69)"/>
<path d="M0 0 C2.81784037 2.5083512 4.45723723 5.29922938 6.30078125 8.57421875 C6.94088135 9.70424316 7.58098145 10.83426758 8.24047852 11.99853516 C8.74649094 12.89949921 8.74649094 12.89949921 9.26272583 13.81866455 C11.05593474 17.01098198 12.86525434 20.19416646 14.671875 23.37890625 C15.2210836 24.34869415 15.2210836 24.34869415 15.78138733 25.33807373 C19.15857254 31.29631803 22.60055967 37.2156201 26.0625 43.125 C34.06983779 56.81074401 41.98175553 70.55101295 49.89550781 84.29101562 C57.37357256 97.27253494 64.87213183 110.24129362 72.43383789 123.17431641 C73.49176425 124.98408059 74.54585105 126.79609738 75.59521484 128.61083984 C76.47469475 130.10659764 77.37789005 131.58893596 78.31494141 133.04931641 C81.06189024 137.41225567 81.06189024 137.41225567 80.75170898 140.35791016 C79.93306981 143.23524473 78.83804958 145.72634363 77.515625 148.41015625 C76.99943604 149.4676709 76.48324707 150.52518555 75.95141602 151.61474609 C75.10921509 153.32138428 75.10921509 153.32138428 74.25 155.0625 C73.05248169 157.51261987 71.85989193 159.96512291 70.66796875 162.41796875 C70.36201279 163.04660828 70.05605682 163.6752478 69.74082947 164.32293701 C66.59570509 170.80072409 63.57482524 177.33454676 60.5625 183.875 C55.85446094 194.07788744 51.02372517 204.21500294 46.11502075 214.32220459 C41.81875102 223.1733179 37.62119397 232.06573278 33.5 241 C28.81270677 251.16150431 24.00327185 261.2571904 19.11474609 271.32275391 C14.81856941 280.17368445 10.62110803 289.06591908 6.5 298 C1.81270677 308.16150431 -2.99672815 318.2571904 -7.88525391 328.32275391 C-12.73806524 338.32045633 -17.44691725 348.37986632 -22.10107422 358.47167969 C-25.73212347 366.32408525 -29.45253282 374.12762977 -33.23175049 381.90933228 C-35.83205289 387.26762539 -38.41452846 392.63454106 -41 398 C-41.53496094 399.1048877 -42.06992187 400.20977539 -42.62109375 401.34814453 C-55.20540375 426.09956535 -55.20540375 426.09956535 -54.25 452.875 C-52.81726256 456.86619715 -51.60554209 458.75986119 -48 461 C-39.21281513 463.22640052 -29.83211653 463.53478376 -20.8125 464.0625 C-20.11895416 464.10324646 -19.42540833 464.14399292 -18.71084595 464.18597412 C65.72488529 469.03650992 151.04072298 466.14470027 402.0090332 460.55883789 C403.27216339 460.52022644 404.53529358 460.48161499 405.83670044 460.4418335 C408.07567245 460.37258198 410.31459361 460.30164665 412.55343628 460.22833252 C419.03788882 460.02421146 425.51245068 459.96209704 432 460 C429.53204735 473.64632643 426.35217613 486.82970651 422 500 C421.74911621 500.76602539 421.49823242 501.53205078 421.23974609 502.32128906 C412.37487492 528.94440698 399.25919684 554.60270142 381 576 C380.29472168 576.83289551 380.29472168 576.83289551 379.57519531 577.68261719 C365.52643396 594.09027686 343.74535395 612.56222772 321.33874142 614.55316687 C315.95004618 614.84346175 310.56451088 614.8012648 305.1700592 614.76190186 C303.08960711 614.76882639 301.00916238 614.77836314 298.92873281 614.79026532 C293.2469173 614.8151893 287.56571059 614.80298915 281.88389361 614.78434801 C275.7426487 614.77072781 269.60150577 614.79174888 263.46028137 614.80822754 C252.13672701 614.83332814 240.81341911 614.83120621 229.48987103 614.81475873 C219.02660215 614.79963636 208.56340384 614.79573865 198.10012627 614.80289459 C197.40476058 614.8033529 196.70939489 614.80381121 195.99295752 614.80428341 C193.16988561 614.8061516 190.34681373 614.80806201 187.52374189 614.81004199 C161.06626377 614.8283767 134.60890822 614.8117863 108.15144903 614.77946061 C84.67259631 614.75099222 61.1939389 614.75353429 37.71508789 614.78222656 C11.30601824 614.81439221 -15.10294318 614.82707302 -41.51202971 614.80855298 C-44.33012328 614.80662883 -47.14821688 614.80475177 -49.9663105 614.80289459 C-51.00705785 614.8021829 -51.00705785 614.8021829 -52.06883041 614.80145682 C-62.52193437 614.79464726 -72.97495983 614.8025851 -83.4280529 614.81777191 C-95.32086515 614.83496481 -107.21344718 614.82998497 -119.1062507 614.79808745 C-125.17009288 614.78235783 -131.2335396 614.77607699 -137.29737854 614.79598236 C-142.85594679 614.81395263 -148.41375562 614.80388705 -153.97225565 614.77211705 C-155.97543587 614.7654534 -157.97868118 614.76873722 -159.98181903 614.78337178 C-187.61347577 614.9696475 -209.26551701 601.77130027 -228.6875 582.8125 C-243.86958318 567.53387553 -253.06424181 548.84476448 -258 528 C-258.18691406 527.21729736 -258.37382812 526.43459473 -258.56640625 525.62817383 C-265.00796476 495.0854091 -259.94763491 464.58150993 -244.09458923 438.19094849 C-240.40479529 432.0478637 -236.95411039 425.77808826 -233.5 419.5 C-232.25102338 417.24943176 -231.00102187 414.99943199 -229.75 412.75 C-229.13125 411.63625 -228.5125 410.5225 -227.875 409.375 C-166 298 -104.125 186.625 -27.25 48.25 C-26.32018311 46.57623291 -26.32018311 46.57623291 -25.37158203 44.86865234 C-24.13319677 42.63968811 -22.89459336 40.41084508 -21.65576172 38.18212891 C-18.70917853 32.88045549 -15.76495495 27.57750772 -12.82830811 22.27032471 C-11.43155751 19.74639423 -10.03357833 17.22314528 -8.63549805 14.69995117 C-7.96544664 13.48984384 -7.29600617 12.27939801 -6.62719727 11.06860352 C-5.70350323 9.39645898 -4.77758977 7.72554103 -3.8515625 6.0546875 C-3.32385254 5.10062012 -2.79614258 4.14655273 -2.25244141 3.16357422 C-1 1 -1 1 0 0 Z " fill="#F6F6F6" transform="translate(345,281)"/>
</svg>
